#define bluetooth_width 26
#define bluetooth_height 32
static unsigned char bluetooth_bits[] = {
   0x00, 0x00, 0x00, 0x00, 0x00, 0x00, 0x00, 0x00, 0x00, 0x00, 0x00, 0x00,
   0x00, 0x00, 0x00, 0x00, 0x00, 0x18, 0x00, 0x00, 0x00, 0x30, 0x00, 0x00,
   0x00, 0x78, 0x00, 0x00, 0x00, 0xf8, 0x00, 0x00, 0x00, 0xf0, 0x01, 0x00,
   0x00, 0xb8, 0x03, 0x00, 0x80, 0x31, 0x07, 0x00, 0x80, 0x3b, 0x07, 0x00,
   0x00, 0xbf, 0x03, 0x00, 0x00, 0xfe, 0x01, 0x00, 0x00, 0xfc, 0x00, 0x00,
   0x00, 0x78, 0x00, 0x00, 0x00, 0x78, 0x00, 0x00, 0x00, 0xfc, 0x00, 0x00,
   0x00, 0xfe, 0x01, 0x00, 0x00, 0xbf, 0x03, 0x00, 0x80, 0x33, 0x07, 0x00,
   0x80, 0x39, 0x07, 0x00, 0x00, 0xb0, 0x03, 0x00, 0x00, 0xf8, 0x01, 0x00,
   0x00, 0xf0, 0x00, 0x00, 0x00, 0x78, 0x00, 0x00, 0x00, 0x30, 0x00, 0x00,
   0x00, 0x18, 0x00, 0x00, 0x00, 0x00, 0x00, 0x00, 0x00, 0x00, 0x00, 0x00,
   0x00, 0x00, 0x00, 0x00, 0x00, 0x00, 0x00, 0x00 };
