#define wlan2_1_width 32
#define wlan2_1_height 32
static unsigned char wlan2_1_bits[] = {
   0x00, 0x00, 0x00, 0x00, 0x00, 0x00, 0x00, 0x00, 0x00, 0x00, 0x00, 0x00,
   0x00, 0x00, 0x00, 0x00, 0x00, 0x00, 0x00, 0x00, 0x00, 0x00, 0x00, 0x00,
   0x00, 0x00, 0x00, 0x00, 0x00, 0x00, 0x00, 0xf8, 0x00, 0x00, 0x00, 0x88,
   0x00, 0x00, 0x00, 0x88, 0x00, 0x00, 0x00, 0x88, 0x00, 0x00, 0xe0, 0x89,
   0x00, 0x00, 0x20, 0x89, 0x00, 0x00, 0x20, 0x89, 0x00, 0x00, 0x20, 0x89,
   0x00, 0x00, 0x20, 0x89, 0x00, 0xc0, 0x23, 0x89, 0x00, 0x40, 0x22, 0x89,
   0x00, 0x40, 0x22, 0x89, 0x00, 0x40, 0x22, 0x89, 0x00, 0x40, 0x22, 0x89,
   0x80, 0x47, 0x22, 0x89, 0x80, 0x47, 0x22, 0x89, 0x80, 0x47, 0x22, 0x89,
   0x80, 0x47, 0x22, 0x89, 0x9f, 0x47, 0x22, 0x89, 0x9f, 0xc7, 0xe3, 0xf9,
   0x00, 0x00, 0x00, 0x00, 0x00, 0x00, 0x00, 0x00, 0x00, 0x00, 0x00, 0x00,
   0x00, 0x00, 0x00, 0x00, 0x00, 0x00, 0x00, 0x00 };
